# xmcd
#
# Track frame offsets: 
#        150
#        14729
#        25327
#        40462
#        50908
#        64361
#        74602
#        87769
#        100236
#        109157
#        117822
#        132330
#        142600
#        155163
#        166049
#        172658
#
# Disc length: 2464 seconds
#
# Revision: 7
# Processed by: cddbd v1.5.2PL0 Copyright (c) Steve Scherf et al.
# Submitted via: ExactAudioCopy v1.0b3
#
DISCID=de099e10
DTITLE=Diverse - Cuntry Roads
DYEAR=2002
DGENRE=Country
TTITLE0=John Denver - Take Me Home Country Roads
TTITLE1=Roger Miller - King Of The Road
TTITLE2=Billie Jo Spears - Blanket On The Ground
TTITLE3=Dolly Parton - Honky Tonk Angels
TTITLE4=Kenny Rogers - Ruby, Don't Take Your Love To Town
TTITLE5=Johnny Cash - If I Were A Carpenter
TTITLE6=Lynn Anderson - Rose Garden
TTITLE7=Wllie Nelson - Shelter Of Your Arms
TTITLE8=Dave Dudley - Keep On Trucking
TTITLE9=Waylon Jennings - Love Gonna Live Here
TTITLE10=Loretta Lynn - Colminer's Daughter
TTITLE11=Don Gibson - Oh Lonesome Me
TTITLE12=Charly Pride - Help Me Make It Through The Night
TTITLE13=Hank Locklin - Send Me A Pillow
TTITLE14=Don Williams - Lord, I Hope This Day Is Good
TTITLE15=Lynn Anderson - Stand By Your Man
EXTD=YEAR: 2002
EXTT0=
EXTT1=
EXTT2=
EXTT3=
EXTT4=
EXTT5=
EXTT6=
EXTT7=
EXTT8=
EXTT9=
EXTT10=
EXTT11=
EXTT12=
EXTT13=
EXTT14=
EXTT15=
PLAYORDER=
